<svg version="1" xmlns="http://www.w3.org/2000/svg" width="1333.333" height="1333.333" viewBox="0 0 1000.000000 1000.000000"><path d="M23 1.4C16.8 3 11.8 6.2 7.1 11.6-.6 20.4 0 1.5 0 230.9v205.6l18.3 6c10 3.3 18.7 6.1 19.3 6.3.8.2 1.3-6.4 1.7-22 1.2-47.9 11-93.7 30.9-144.5 22.5-57.7 53-88.4 93.8-94.4 32-4.6 63.1 8 92.5 37.5 25.1 25.1 44 53.6 67 101 26.6 54.6 48.2 108.7 69.7 174.6 4.9 15.1 14 42.1 20.3 60 6.2 17.9 16.3 48 22.5 67 16.7 51.6 17.8 54.9 21.7 60.7 17.2 26 56.3 29.5 78.4 7 6.7-6.8 10.6-15.3 18.4-40.2 3.7-11.6 12.1-37 18.7-56.5s20-59.4 29.8-88.5c24.8-73.9 35.8-102.8 57.1-150.2 30.8-68.5 54.6-107.4 82.8-135.3 19.4-19.1 36.7-29.6 59.1-35.6 8.9-2.5 31.7-2.5 41.3-.1 31.2 7.8 57.2 31.7 75.9 69.8 25 51 41.8 123.2 41.8 179.7 0 7.9.3 10.3 1.3 9.9.6-.2 9.4-3.1 19.4-6.3l18.3-5.9-.3-206.5-.2-206.5-2.5-5c-3.1-6.4-9.1-12.4-15.5-15.5l-5-2.5L502 .3C129.2.2 26.5.4 23 1.4z"/><path d="M175.3 319.6c-8.8 4.4-15.3 15.1-25.2 41.6-13.9 37.3-21.9 76.9-22.4 110.7l-.2 14.4 21.5 10.1c59.1 28.1 100.1 54.8 129.3 84.2 14 14.2 21.4 24.2 28.7 38.9 7.9 15.9 10.4 26 10.3 42-.1 14.9-2.3 24-9.2 38.1-8.4 16.9-21.3 27.5-39.1 32.1-8.5 2.1-25.9 2.1-36.3-.1-16.2-3.5-35.8-12-52-22.5-11.9-7.8-33.6-24.3-43.4-33-35.6-31.5-67.2-81.7-82.8-131.1-5.8-18.4-12.3-49.6-13.7-65.5-.3-2.8-1.4-3.5-19.8-12.7-10.7-5.3-19.8-9.7-20.2-9.7C.3 457 0 573.9 0 716.7v259.8l2.4 5.1c3.4 7.2 7.8 11.9 14.8 15.4l6.1 3H499c432.4 0 476.1-.1 480.3-1.6 6.4-2.2 14-9.2 17.4-16.2l2.8-5.7.3-259.8c.1-142.8-.2-259.7-.6-259.7-.7 0-39.3 18.7-39.9 19.3-.1.1-.9 5.6-1.8 12.2-7.7 55.9-29.1 108.3-62.1 151.7-12.6 16.5-36.2 39.5-54.9 53.4-30.7 22.8-48 31.8-71.5 37.4-11.8 2.8-28.3 3-38.2.7-28-6.8-46.7-32.2-48.5-65.9-1-17.8 2.1-31.1 11.3-48.9 16-31 52.3-63.3 105.4-93.9 13.1-7.5 69.9-36 71.9-36 1.4 0 1.5-18.8.1-33.1-3.3-33.9-11.4-66.6-25.2-101.8-6.9-17.6-12.3-26.2-19.2-30.9-10.8-7.2-20.1-2.7-31.8 15.4-27.2 42.1-52.6 95.8-91.9 194.2-15.4 38.7-24.4 65.5-47.5 141.2-13.1 43-16.4 52.1-23.5 64.5-22.3 39-58.2 64.7-103.2 73.7-16 3.2-43.5 3.2-58.7-.1-21.1-4.5-39.2-12-56.1-23.2-12.9-8.6-31.5-27.3-40.1-40.4-12.4-18.7-14.4-23.8-34.9-91-18.5-60.8-27.1-86.2-41.4-122-32-80.4-53.8-129.1-74.4-165.8-11-19.8-22.6-38-27.1-42.6-6.7-6.9-13.9-8.8-20.7-5.5z"/><path d="M131 529.5c0 3.6 5.3 26.2 8.6 36.6 8.1 25.7 18.1 46.7 32.5 68.4 10.6 16.1 21.6 27.6 33.9 35.7 17.5 11.6 30.2 14.3 41 8.8 3.4-1.7 4-2.5 4.6-6.5.3-2.6.4-8.3.2-12.8-2-33.6-35.9-73.7-99.8-117.9-16.4-11.3-21-14-21-12.3zM852.9 537.8c-29 19.6-45.2 32.5-63.8 50.7-15.8 15.4-27.3 30.3-34.1 44-5.9 12-8 20-8 31.7 0 10.6.8 13 5.3 15.2 10.9 5.1 26.1 1.3 43.4-11 27.9-19.9 55.7-68.1 67.6-117.4 3.6-14.8 5.2-23 4.5-23-.3 0-6.9 4.4-14.9 9.8z"/></svg>