<?xml version="1.0" encoding="utf-8"?>
<!-- Generator: Adobe Illustrator 19.2.1, SVG Export Plug-In . SVG Version: 6.00 Build 0)  -->
<svg version="1.1" id="House_1_" xmlns="http://www.w3.org/2000/svg" xmlns:xlink="http://www.w3.org/1999/xlink" x="0px" y="0px"
	 viewBox="0 0 1008 1008" style="enable-background:new 0 0 1008 1008;" xml:space="preserve">
<style type="text/css">
	.st0{fill:#29ABE2;}
	.st1{fill:#006837;}
	.st2{fill:#009245;}
</style>
<path class="st0" d="M0,114.5v782c0,62,50.2,112.2,112.2,112.2h783.6c62,0,112.2-50.2,112.2-112.2V112.2
	C1008,50.1,957.6-0.2,895.5,0L111.9,2.3C50,2.5,0,52.7,0,114.5z"/>
<path id="Base" class="st1" d="M843.7,336.4l-89.6-44.3c-2.1-1.1-3.5-3.2-3.4-5.6l1.5-104.5c0-3.4-2.7-6-6.2-6H643.2
	c-3.4,0-5.2,2.2-5.2,5.6v42.4c0,4.6-5.3,7.6-9.5,5.5l-104.6-52c-1.7-0.9-3.9-0.9-5.6,0L199.7,336.4c-5.8,2.9-3.8,11.6,2.7,11.6h82.4
	c3.4,0,7.2,3,7.2,6.4v506c0,3.4,1.7,6.5,5.2,6.5H400c3.4,0,7-3.1,7-6.5V700c0-3.4,1.9-6,5.4-6h102.8c3.4,0,6.8,2.6,6.8,6v160.4
	c0,3.4,2.1,6.5,5.6,6.5h218c3.4,0,7.4-3.1,7.4-6.5v-506c0-3.4,1.5-6.4,5-6.4h83C847.5,348,849.5,339.3,843.7,336.4z M637,515.8
	c0,3.4-2.8,6.2-6.2,6.2H528.2c-3.4,0-6.2-2.8-6.2-6.2V413.2c0-3.4,2.8-6.2,6.2-6.2h102.6c3.4,0,6.2,2.8,6.2,6.2V515.8z"/>
<path id="Base_1_" class="st2" d="M826,319.5l-89.6-44.2c-2.1-1.1-3.5-3.2-3.4-5.6l1.5-105.1c0-3.4-2.7-6.6-6.2-6.6H625.5
	c-3.4,0-6.5,3.4-6.5,6.8v42.4c1,4.6-4.7,7.6-8.8,5.5l-104.2-52c-1.7-0.9-3.7-0.9-5.5,0L182,319.5c-5.8,2.9-3.7,11.5,2.8,11.5h82.4
	c3.4,0,6.9,3.2,6.9,6.6v506c0,3.4,2.1,5.3,5.5,5.3h102.8c3.4,0,6.7-1.9,6.7-5.3V683.2c0-3.4,2.3-6.2,5.7-6.2h102.8
	c3.4,0,6.5,2.8,6.5,6.2v160.4c0,3.4,2.5,5.3,5.9,5.3h218c3.4,0,6.1-1.9,6.1-5.3v-506c0-3.4,2.9-6.6,6.3-6.6h83
	C829.8,331,831.9,322.4,826,319.5z M618,497.8c0,3.4-2.8,6.2-6.2,6.2H509.2c-3.4,0-6.2-2.8-6.2-6.2V395.2c0-3.4,2.8-6.2,6.2-6.2
	h102.6c3.4,0,6.2,2.8,6.2,6.2V497.8z"/>
</svg>
