<svg xmlns="http://www.w3.org/2000/svg" width="1694.66" height="1694.66" viewBox="0 0 1694.66 1694.66"><defs><style>.a{fill:#a61d35;}.b{fill:#fff;}</style></defs><title>MyMICDS Logo</title><rect class="a" width="1694.66" height="1694.66" rx="53.5" ry="53.5"/><path class="b" d="M1628,762.27c.24-8.79.33-17.63.19-26.54-.81-57.15-9.65-116.24-25.69-174.85l-6.35-22c-2.3-7.27-4.68-14.55-7.1-21.86-1.14-3.61-2.55-7.42-3.93-11.21l-4.17-11.39-2.1-5.71-1.05-2.86-1-2.45-3.86-9.79-3.87-9.83-.49-1.23c0-.1-1.42-3.22-1.15-2.62l-1.34-3-2.69-6-2.72-6c-.94-2-2-4.09-3-6.14-2.1-4.13-4-8.16-6.34-12.37l-7.16-12.65c-2.65-4.31-5.48-8.68-8.28-13-1.32-2.13-3.07-4.43-4.66-6.64l-4.95-6.66c-1.56-2.17-3.58-4.5-5.5-6.78l-5.87-6.8-1.49-1.69-1.7-1.75-3.44-3.47q-3.46-3.45-7-6.84c-2.67-2.33-5.41-4.63-8.17-6.89a109.54,109.54,0,0,0-8.78-6.71q-4.81-3.33-9.76-6.49c-1.57-1.06-3.46-2.08-5.32-3.09l-5.62-3c-7.23-4-16.06-7.23-24.57-10.09a156.88,156.88,0,0,0-42.23-6.48c-4.74-.08-9.47.06-14.13.42-8.87,1-18.21,2.23-26.12,4.46l-6.14,1.65-3.05.87c-1,.31-1.87.64-2.8,1q-5.55,2-11,4.12c-1.9.71-3.55,1.47-5.17,2.23l-4.92,2.33-4.89,2.42-2.4,1.24-2.18,1.25c-5.78,3.34-11.78,6.86-16.68,10.39-2.56,1.77-5.15,3.57-7.65,5.38l-6.9,5.41c-4.75,3.66-8.74,7.28-12.88,11-16.23,14.63-29.06,29.49-40.77,44.18s-21.89,29.47-31.46,44.26-18.19,29.59-26.47,44.5-16,29.85-23.38,44.91-14.5,30.15-21.19,45.37c-1.13,2.51-2.19,5-3.31,7.56-12.8,27.69-25,55.57-36.24,83.84-12.47,30.75-24.08,61.88-35.29,93.22-15.22,42.93-29.39,86.39-43,130.19q-10.8,29.87-21.31,59.93c-11.07,31.74-21.67,63.74-32.19,95.84-5.24,16.08-10.45,32.07-15.57,48.34l-7.55,24.1-1.9,6.06L929,1147l-1.15,3.28-.55,1.65-.74,1.49A80.26,80.26,0,0,1,913.39,1175a81.89,81.89,0,0,1-17.93,15.88q-1.89,1.24-3.87,2.37a83.23,83.23,0,0,1-12.66,5.87h0c-1.94.71-3.93,1.35-5.94,1.93l-.55.16q-3.11.87-6.29,1.54l-1.31.26a94.08,94.08,0,0,1-10.77,1.45l-1.36.09c-1.78.11-3.56.18-5.35.19s-3.57-.08-5.35-.19l-1.36-.09a94.08,94.08,0,0,1-10.77-1.45l-1.31-.26q-3.19-.67-6.29-1.54l-.55-.16c-2-.58-4-1.21-5.94-1.93h0a83.23,83.23,0,0,1-12.66-5.87q-2-1.14-3.87-2.37A81.89,81.89,0,0,1,781.27,1175a80.26,80.26,0,0,1-13.14-21.55l-.74-1.49-.55-1.65-1.15-3.28-1.24-3.25-1.9-6.06-7.55-24.1c-5.11-16.27-10.32-32.26-15.57-48.34-10.52-32.09-21.11-64.09-32.19-95.84q-10.48-30.09-21.31-59.93c-13.6-43.8-27.78-87.26-43-130.19-11.21-31.34-22.82-62.48-35.29-93.22-11.28-28.27-23.44-56.15-36.24-83.84-1.11-2.52-2.18-5-3.31-7.56-6.69-15.21-13.84-30.33-21.19-45.37s-15.14-30-23.38-44.91-17-29.75-26.47-44.5-19.78-29.56-31.46-44.26-24.55-29.55-40.77-44.18c-4.14-3.68-8.13-7.29-12.88-11l-6.9-5.41c-2.5-1.81-5.09-3.61-7.65-5.38-4.9-3.53-10.9-7-16.68-10.39l-2.18-1.25-2.4-1.24-4.89-2.42-4.92-2.33c-1.62-.77-3.27-1.52-5.17-2.23q-5.49-2.16-11-4.12c-.94-.32-1.83-.65-2.8-1l-3.05-.87-6.14-1.65c-7.91-2.23-17.25-3.5-26.12-4.46-4.66-.36-9.39-.5-14.13-.42a156.88,156.88,0,0,0-42.23,6.48c-8.51,2.86-17.34,6.14-24.57,10.09l-5.62,3c-1.86,1-3.76,2-5.32,3.09q-4.94,3.16-9.76,6.49a109.54,109.54,0,0,0-8.78,6.71c-2.76,2.26-5.51,4.57-8.17,6.89q-3.54,3.39-7,6.84L183,370.47l-1.7,1.75-1.49,1.69-5.87,6.8c-1.92,2.27-3.94,4.6-5.5,6.78l-4.95,6.66c-1.59,2.22-3.34,4.52-4.66,6.64-2.8,4.32-5.63,8.69-8.28,13l-7.16,12.65c-2.33,4.21-4.24,8.24-6.34,12.37-1,2-2.09,4.12-3,6.14l-2.72,6-2.69,6-1.34,3c.27-.6-1.13,2.52-1.15,2.62l-.49,1.23-3.87,9.83-3.86,9.79-1,2.45-1.05,2.86-2.1,5.71-4.17,11.39c-1.38,3.79-2.8,7.6-3.93,11.21-2.42,7.31-4.8,14.59-7.1,21.86l-6.35,22c-16,58.61-24.89,117.7-25.69,174.85-.15,8.91-.05,17.75.19,26.54-22.11-8-44.52-15.53-66.68-22.14v33.06c21.41,10.11,44.94,21.57,69.62,34.16a578.26,578.26,0,0,0,16.49,90.84,538.75,538.75,0,0,0,56.63,135.39,486.68,486.68,0,0,0,78.71,100.71,422.33,422.33,0,0,0,59,47.9,333.8,333.8,0,0,0,62.06,39c17.74,8.4,36.56,15.25,57,18.92a159,159,0,0,0,24,2.49q4.08.11,8.23,0a117.6,117.6,0,0,0,33.89-5.87,97.3,97.3,0,0,0,31.88-17.83,96.27,96.27,0,0,0,22.38-27.69,153.36,153.36,0,0,0,17.83-56,144.3,144.3,0,0,0-5.3-57,188.53,188.53,0,0,0-22.11-47.5,268.13,268.13,0,0,0-29.52-37.95,395.64,395.64,0,0,0-32.47-31.22,621,621,0,0,0-67.07-49.78c-22.3-14.54-44.44-27.2-65.89-38.8-25.7-13.83-50.49-26-74.19-36.93q-12-5.69-25.35-11.88a512.72,512.72,0,0,1,4.69-78.22c5.9-43.63,17.23-88.52,34-133.72l6.52-17,7.08-17c.52-1.32,1.05-2.56,1.59-3.78.31-.69.61-1.37.92-2l.05-.12c1.7-3.61,16.63-34,38.59-34.07,10,.09,21.43,6.47,33.73,24.49l.11.17c5.13,7.83,10.27,15.95,15.38,24.29q2.59,4.23,5.18,8.54c3.54,6.07,7.12,12.1,10.6,18.38s7,12.52,10.55,18.85c6.91,12.81,13.82,25.81,20.6,39.13,1,2,2,4,3,6q8.26,17.21,16.34,34.86c6.23,13.9,12.59,27.86,18.79,42,12.35,28.36,24.71,57.18,36.67,86.52q24.49,59.49,48.21,121,9.9,29.85,19.55,60c9.89,31.13,19.8,62.42,29.4,94l14.32,47.34,7.19,23.91,1.79,5.95,2.9,8.61,3,8.59,1.54,4.28,1.82,4.25a252,252,0,0,0,38.3,64.54,248.75,248.75,0,0,0,56.8,51.14c4.14,2.71,8.37,5.25,12.65,7.71a258,258,0,0,0,56.07,23.89,264.45,264.45,0,0,0,64.32,10.4c1.18,0,2.37,0,3.55.07,1.81,0,3.62.1,5.43.11h.78c1.81,0,3.62-.07,5.43-.11,1.18,0,2.37,0,3.55-.07a264.45,264.45,0,0,0,64.32-10.4,258,258,0,0,0,56.07-23.89c4.28-2.45,8.51-5,12.65-7.71a248.75,248.75,0,0,0,56.8-51.14,252,252,0,0,0,38.3-64.54l1.82-4.25,1.54-4.28,3-8.59,2.9-8.61,1.79-5.95,7.19-23.91,14.32-47.34c9.6-31.53,19.52-62.83,29.4-94q9.62-30.19,19.55-60,23.65-61.43,48.21-121c12-29.35,24.32-58.17,36.67-86.52,6.2-14.18,12.56-28.13,18.79-42q8.07-17.64,16.34-34.86c1-2,2-4,3-6,6.78-13.32,13.69-26.32,20.6-39.13,3.51-6.33,7-12.7,10.55-18.85s7.06-12.31,10.6-18.38q2.58-4.3,5.18-8.54c5.11-8.34,10.24-16.46,15.38-24.29l.11-.17c12.3-18,23.73-24.41,33.73-24.49,22,.06,36.9,30.46,38.59,34.07l.05.12c.31.67.61,1.36.92,2,.54,1.22,1.07,2.46,1.59,3.78l7.08,17,6.52,17c16.72,45.2,28,90.09,34,133.72a512.88,512.88,0,0,1,4.69,78.22q-13.36,6.16-25.35,11.88c-23.7,10.91-48.49,23.09-74.19,36.93-21.46,11.6-43.6,24.26-65.89,38.8a621,621,0,0,0-67.07,49.78,395.64,395.64,0,0,0-32.47,31.22,268.13,268.13,0,0,0-29.52,37.95,188.53,188.53,0,0,0-22.11,47.5,144.3,144.3,0,0,0-5.3,57,153.36,153.36,0,0,0,17.83,56,96.27,96.27,0,0,0,22.38,27.69,97.3,97.3,0,0,0,31.88,17.83,117.6,117.6,0,0,0,33.89,5.87q4.15.13,8.23,0a159,159,0,0,0,24-2.49c20.47-3.66,39.28-10.51,57-18.92a333.8,333.8,0,0,0,62.06-39,422.33,422.33,0,0,0,59-47.9,486.68,486.68,0,0,0,78.71-100.71,538.75,538.75,0,0,0,56.63-135.39A578.26,578.26,0,0,0,1625,807.34c24.68-12.59,48.21-24,69.62-34.16V740.13C1672.5,746.75,1650.09,754.26,1628,762.27ZM426.3,1147q-.87.72-1.8,1.39l-.36.26q-1,.67-2,1.3l-.34.21c-.71.43-1.43.84-2.18,1.23s-1.52.74-2.31,1.08l-.38.17q-1.14.48-2.34.89l-.46.15c-.82.27-1.65.52-2.51.75l-.3.07q-1.26.32-2.58.56l-.3.06c-.9.16-1.83.29-2.78.39l-.54.06q-1.41.14-2.88.19h-.5c-1,0-2.08,0-3.16,0s-2.18-.13-3.3-.24l-.55-.05q-1.61-.18-3.29-.45l-.65-.11c-1.14-.2-2.3-.43-3.49-.71l-.4-.1q-1.74-.41-3.55-.94L383,1153c-1.24-.37-2.5-.78-3.78-1.22l-.73-.26q-1.9-.68-3.87-1.48l-.68-.28c-1.38-.57-2.78-1.18-4.2-1.85s-2.88-1.39-4.35-2.15l-.72-.37q-2.12-1.12-4.31-2.37l-.85-.49c-1.49-.86-3-1.77-4.53-2.73l-.53-.34q-2.25-1.42-4.56-3l-.39-.25-.12-.09a197.42,197.42,0,0,1-42.41-39.65c-23.76-31-45.47-69.11-61.73-113a467.76,467.76,0,0,1-23.47-90.24C343.24,970.58,447,1063.38,426.3,1147ZM1449.47,983.57c-16.26,43.85-38,81.92-61.73,113a197.42,197.42,0,0,1-42.41,39.65l-.12.09-.39.25q-2.31,1.56-4.56,3l-.53.34c-1.53,1-3,1.86-4.53,2.73l-.85.49q-2.19,1.25-4.31,2.37l-.72.37c-1.47.76-2.93,1.49-4.35,2.15s-2.82,1.27-4.2,1.85l-.68.28q-2,.8-3.87,1.48l-.73.26c-1.28.44-2.54.86-3.78,1.22l-.42.12q-1.8.52-3.55.94l-.4.1c-1.19.27-2.35.5-3.49.71l-.65.11q-1.68.28-3.29.45l-.55.05c-1.12.11-2.22.2-3.3.24s-2.13,0-3.16,0h-.5q-1.47-.05-2.88-.19l-.54-.06c-.94-.1-1.87-.23-2.78-.39l-.3-.06q-1.32-.24-2.58-.56l-.3-.07c-.86-.22-1.69-.48-2.51-.75l-.46-.15q-1.2-.41-2.34-.89l-.38-.17c-.79-.34-1.56-.7-2.31-1.08s-1.47-.8-2.18-1.23l-.34-.21q-1-.62-2-1.3l-.36-.26q-.93-.67-1.8-1.39c-20.68-83.63,83.06-176.43,204.58-253.68A467.68,467.68,0,0,1,1449.47,983.57Z"/></svg>
